<?xml version="1.0" encoding="utf-8"?>
<!-- Generator: Adobe Illustrator 28.0.0, SVG Export Plug-In . SVG Version: 6.00 Build 0)  -->
<svg version="1.1" id="Layer_1" xmlns="http://www.w3.org/2000/svg" xmlns:xlink="http://www.w3.org/1999/xlink" x="0px" y="0px"
	 viewBox="0 0 1280 1090" style="enable-background:new 0 0 1280 1090;" xml:space="preserve">
<style type="text/css">
	.st0{fill:#FFFFFF;}
</style>
<g transform="translate(0.000000,1090.000000) scale(0.100000,-0.100000)">
	<path class="st0" d="M12416,10718c-30-246-53-278-283-388l-123-59l-109,24c-61,14-119,25-130,25c-16,0-21,6-21,28
		c0,51,46,129,164,281c9,12,3,13-39,7c-175-25-283-99-390-263c0-1-53,11-116,28c-305,80-495,111-694,112c-177,0-289-22-394-79
		c-120-65-376-85-551-44c-47,11-96,23-110,26c-39,8,108-92,170-116c89-35,226-50,460-50c235,0,364-12,449-41c40-13,46-17,21-13
		c-159,24-215,26-535,18c-388-10-530-8-633,8c-40,6-74,9-76,7s-6-13-8-23c-2-15,6-22,43-31c26-7,77-26,115-43c38-18,193-68,344-112
		c151-45,277-83,279-86c2-2-59-4-136-4c-172,0-250-11-713-96c-122-23-174-27-330-28c-170-1-191,1-258,23c-104,34-178,85-252,175
		c-34,42-64,75-66,73c-7-7,46-197,66-238c60-119,151-192,341-272c171-72,220-84,404-102c217-21,336-36,356-43c10-4-78-7-194-7
		c-229,0-266-5-527-70c-181-45-296-59-427-52c-178,8-241,32-536,199c-253,143-334,176-487,199c-69,10-134,19-145,19
		c-21,0,25-35,236-180c196-135,260-186,414-330c147-138,241-208,353-262l67-32l-35-9c-67-17-337-10-465,11c-66,11-181,31-255,43
		c-197,33-472,32-740-5c-416-56-665-70-834-46c-38,6-71,9-73,6c-6-6,146-124,248-192c253-167,524-264,734-264c125,0,238-44,306-118
		c53-58,151-183,147-187c-8-6-229,16-278,29c-30,7-127,34-214,60c-212,62-364,80-616,73c-102-3-237-12-300-21s-153-21-200-26
		c-152-20-354-96-754-286c-121-57-220-103-221-101c0,1-10,22-20,47c-46,110-112,186-198,232c-36,20-57,23-142,22c-87,0-111-4-182-31
		c-184-70-449-262-718-521c-242-234-341-297-501-324c-132-22-291,33-402,140c-148,143-224,337-226,579c-1,68-3,123-6,123
		c-8-1-167-224-225-316c-115-182-132-310-55-398c17-18,30-37,30-41c0-29-213,174-348,333c-53,62-99,109-102,105c-7-9-55-355-65-463
		c-12-142,25-284,94-362c17-20,31-38,31-40c0-12-111,16-191,49c-166,66-290,164-570,451c-190,195-195,200-252,313l-58,114l6-65
		c43-452,286-1012,562-1292c78-80,70-85-58-38c-292,106-701,418-911,693l-63,82l-3-45c-2-25-2-157,1-295c4-284,11-319,83-474
		c55-118,113-199,217-304c169-170,389-314,714-467l142-67l-42-7c-90-13-482-18-574-7c-239,30-424,134-513,289c-35,61-44,69-67,54
		c-15-10,22-113,90-250c228-458,612-850,1042-1065c229-114,415-163,665-173c128-6,141-5,251,24c229,61,400,138,594,267
		c161,107,262,191,426,354c199,199,345,392,465,613l56,103l-6-55c-3-31-15-91-26-134c-11-44-20-109-20-145c0-105-19-279-40-363
		c-36-143-99-269-238-473c-160-235-275-355-556-580c-239-191-259-211-286-282c-12-32-25-62-29-68c-5-5-17-32-27-60
		c-10-27-33-65-51-83c-65-65-75-150-63-557c3-138,2-158-23-250c-31-117-130-325-210-441c-29-43-75-119-102-169
		c-62-117-205-360-266-452c-66-100-92-173-93-256c-1-61,2-71,23-88c15-12,39-19,67-19h44l-15-37c-35-84-89-130-216-184
		c-57-24-72-27-96-18c-15,6-67,11-114,11c-76,0-94-3-151-30c-118-57-207-173-259-342c-20-64-24-96-23-210c0-117,3-143,23-195
		c46-116,145-186,243-171c57,9,169,75,281,165c74,61,92,71,121,69c28-2,44,7,90,45c68,59,126,145,207,310c47,95,72,134,98,154
		c124,93,296,273,307,322c4,14,20,53,35,87c16,33,36,89,43,125c8,35,30,93,49,129c49,91,79,196,137,485c27,138,56,274,64,302
		c15,57,189,400,334,658c85,152,91,161,144,192c76,45,167,145,276,306c129,190,176,238,316,322c147,87,206,134,419,334
		c269,252,303,274,738,480c37,17,122,70,189,117s152,102,189,122c63,35,70,37,161,37c74,0,120-7,208-30c61-16,112-33,112-37
		c0-17-157-193-205-229c-88-66-148-80-256-57c-128,26-342-35-430-124c-38-38-94-166-127-293c-12-44-44-240-72-435s-61-409-74-475
		c-14-66-28-142-31-170c-16-114-50-227-140-471c-53-141-107-278-120-303c-32-60-117-276-146-371c-29-96-31-210-5-262
		c21-43,69-76,121-85c19-3,35-8,35-10c0-10-213-171-251-191c-21-11-40-10-126,7c-115,24-134,25-184,11c-86-24-169-109-208-215
		c-11-29-24-93-30-144c-31-282,95-591,242-591c36,0,115,44,197,111c41,33,122,84,179,112c58,29,121,68,140,88c62,62,173,196,205,247
		c17,27,94,117,171,201s145,162,151,174c23,44,75,245,94,362c25,151,50,414,50,518c0,132,73,421,167,657c116,294,264,521,491,754
		c124,127,123,126,431,142c450,24,714,70,882,154c92,47,169,127,280,293c117,173,158,221,210,248c50,25,86,24,253-6
		c162-29,216-31,352-10c54,8,124,15,154,15c56,0,56,0,69-37c8-21,33-79,57-129c57-120,117-180,315-315c184-125,264-197,317-287
		c60-101,107-149,292-297c161-130,240-205,240-230c0-7-5-37-10-66c-27-139-41-325-50-684c-5-214-15-415-21-445
		c-37-189-129-525-192-710c-102-294-130-409-125-514c2-70,7-89,30-124c39-59,76-75,190-82c107-7,121-14,164-82c42-65,28-132-51-258
		c-28-44-45-96-54-166l-8-55l351,2c298,2,369,0,468-16c65-10,120-16,124-13c3,3-27,57-67,119c-122,194-128,205-143,248
		c-22,60-53,98-221,271c-165,171-200,224-215,331c-14,95-12,268,4,324c7,28,41,145,74,260c70,241,106,406,122,555
		c9,86,23,137,78,289c36,102,73,214,82,249l17,64l130-163c72-90,159-200,195-244s75-99,86-122c29-55,77-189,86-236
		c25-135,110-210,211-187c59,14,111,12,125-5c26-31,15-105-29-203c-45-97-46-118-20-222c11-44,70-103,129-129c109-48,178-56,477-56
		c155,0,284,3,288,6c3,4-30,81-74,170c-83,171-158,283-206,309c-15,8-54,54-86,101c-94,140-202,270-425,509
		c-276,296-351,382-440,502c-73,98-154,228-154,246c0,6-13,15-29,20c-21,8-49,43-116,148l-88,139l18,120c29,199,79,381,157,564
		c38,91,108,261,155,376c46,116,97,233,112,260c15,28,28,59,28,71c2,36,52,143,111,238c94,154,120,207,158,321c42,128,52,207,35,268
		c-12,41-11,48,16,108c53,116,55,135,51,410c-4,204-9,277-26,370c-50,265-105,420-174,487l-34,32l47,50c123,131,222,451,274,880
		c19,160,35,269,44,292c5,15,12,14,73-7c153-53,269-134,384-265c32-36,94-103,140-150c45-47,89-100,99-118c9-19,20-71,25-117
		c10-95,26-134,73-169c49-38,98-52,283-81c189-31,250-29,322,7c40,20,52,34,89,103c23,44,48,102,55,128c9,37,16,47,28,44
		c9-2,22,4,28,14c9,15,8,21-8,32c-18,13-17,17,26,138c24,68,49,132,54,141c27,48,4,94-94,181c-83,75-96,102-116,241
		c-11,74-30,133-115,360c-35,93-36,99-20,122c13,20,14,28,4,40c-6,8-20,12-29,9c-18-6-24,10-54,143c-13,58-13,67,7,137
		c21,73,23,75,53,75s114,50,114,69c0,5-7,14-15,21c-12,10-20,7-46-14c-28-23-59-34-59-21c0,3,7,17,16,30c12,19,15,39,11,80
		c-5,50-11,61-69,128c-34,39-66,74-70,75c-22,10-2,17,45,17c80,0,145,23,188,66c60,60,74,93,74,181c-1,69-4,84-40,154
		c-29,57-54,89-91,120c-51,41-51,41-34,65c55,76,66,223,30,394c-11,55-28,134-36,175c-9,41-17,76-19,78S12419,10747,12416,10718z
		 M10513,10453c-7-2-19-2-25,0c-7,3-2,5,12,5S10519,10456,10513,10453z M360,6684c0-52,97-276,160-369c36-54,46-75,21-45
		c-34,41-87,121-114,176c-45,89-99,272-76,258C356,6701,360,6692,360,6684z M9415,4709c38-10,45-16,58-52c38-102,47-153,47-266
		c0-96,4-124,21-161c11-25,30-67,40-94c17-42,18-47,4-36c-25,21-174,208-207,260c-61,97-83,204-63,318
		C9323,4725,9335,4729,9415,4709z M9830,1896c-28-126-110-429-120-439c-17-19,39,224,96,411c19,62,34,116,34,119c0,4,2,4,4,2
		C9847,1986,9840,1944,9830,1896z"/>
</g>
</svg>
